#!OML:ASF E:\Mandelcareful walks\Project 1\Capture day 1\Session 1\Subject1.ASF
:FULLY-SPECIFIED
:DEGREES
112
root -28.5797 15.499 2.6021 -301.887 71.3688 -320.629
lowerback 19.1068 -1.61777 4.81638
upperback 5.68065 -0.932108 -0.264737
thorax -4.64147 -0.339468 -2.81881
lowerneck -31.4778 6.56711 2.52787
upperneck 24.7208 14.1298 -16.2582
head 15.6336 4.0154 -3.99175
rclavicle 7.4743e-014 3.49861e-014
rhumerus -23.3459 6.52745 -86.269
rradius 39.2639
rwrist -48.1963
rhand 0.880594 -42.0813
rfingers 7.12502
rthumb 26.4336 -70.2581
lclavicle 7.4743e-014 3.49861e-014
lhumerus -15.6482 -73.6551 102.517
lradius 60.4093
lwrist 9.4116
lhand -20.7848 -17.1202
lfingers 7.12502
lthumb 5.58212 12.7863
rfemur -51.0132 -15.2164 8.25693
rtibia 58.5443
rfoot -25.4713 -8.53874
rtoes 4.26102
lfemur -52.51 20.5709 -27.3275
ltibia 53.8556
lfoot -12.3928 7.182
ltoes -16.3515
113
root -28.5328 15.4721 2.57563 -301.257 71.6737 -319.636
lowerback 20.0028 -1.74368 4.93142
upperback 5.84094 -1.00015 -0.235151
thorax -4.94385 -0.366155 -2.83179
lowerneck -31.7386 6.59706 2.49001
upperneck 23.9854 14.1039 -16.4621
head 15.3713 4.00234 -4.04202
rclavicle -4.45278e-014 -3.81667e-014
rhumerus -23.1694 5.70244 -85.9456
rradius 38.8822
rwrist -49.3266
rhand 2.1672 -42.1694
rfingers 7.12502
rthumb 27.6645 -70.155
lclavicle -4.45278e-014 -3.81667e-014
lhumerus -14.9721 -74.2071 102.363
lradius 59.9693
lwrist 8.23283
lhand -21.2741 -19.1555
lfingers 7.12502
lthumb 5.10972 10.7629
rfemur -50.6161 -15.828 8.0817
rtibia 59.0226
rfoot -25.8517 -8.26491
rtoes 5.14546
lfemur -53.0478 19.5476 -26.7633
ltibia 52.4022
lfoot -12.1991 7.10586
ltoes -17.0559
114
root -28.4841 15.4468 2.53953 -301.055 71.2706 -319.206
lowerback 20.7427 -1.67618 4.48039
upperback 5.98005 -0.958842 -0.404115
thorax -5.17225 -0.339107 -2.76293
lowerneck -31.8652 6.72377 2.53655
upperneck 23.2863 14.2051 -16.7215
head 15.1323 4.05043 -4.10119
rclavicle 3.33958e-014 -3.81667e-014
rhumerus -23.0149 4.94761 -85.7002
rradius 38.3721
rwrist -50.4699
rhand 3.6085 -41.7525
rfingers 7.12502
rthumb 29.0419 -69.5091
lclavicle 3.33958e-014 -3.81667e-014
lhumerus -14.4809 -74.786 102.257
lradius 59.9099
lwrist 7.96565
lhand -21.9403 -20.1626
lfingers 7.12502
lthumb 4.46639 9.77029
rfemur -50.5441 -16.105 7.42061
rtibia 59.4614
rfoot -25.9986 -8.07085
rtoes 4.36883
lfemur -53.5377 18.9616 -26.7656
ltibia 50.7476
lfoot -12.1306 6.94031
ltoes -17.0368
115
root -28.4302 15.4424 2.50105 -300.47 71.0505 -317.865
lowerback 22.0878 -1.72438 4.1116
upperback 6.26683 -1.01057 -0.586001
thorax -5.55748 -0.347826 -2.73011
lowerneck -32.2625 6.86231 2.75635
upperneck 22.7657 14.3042 -17.04
head 15.0515 4.08062 -4.22305
rclavicle -3.18055e-014 1.27222e-014
rhumerus -22.72 3.87233 -85.4398
rradius 37.7749
rwrist -51.588
rhand 5.08007 -41.1148
rfingers 7.12502
rthumb 30.4463 -68.6204
lclavicle -3.18055e-014 1.27222e-014
lhumerus -14.1978 -75.7044 102.422
lradius 59.7302
lwrist 7.71679
lhand -24.1132 -21.5122
lfingers 7.12502
lthumb 2.36802 8.45436
rfemur -49.6703 -16.6371 6.59319
rtibia 59.8626
rfoot -26.3501 -8.01125
rtoes 3.17019
lfemur -53.2577 18.0907 -26.5914
ltibia 49.013
lfoot -12.2251 6.70445
ltoes -16.5591
116
root -28.3722 15.4259 2.45293 -299.95 70.8809 -316.645
lowerback 23.4459 -1.685 3.80954
upperback 6.5675 -0.939947 -0.747901
thorax -5.91573 -0.294922 -2.74861
lowerneck -32.7076 6.92215 3.07541
upperneck 22.3071 14.263 -17.3879
head 15.0013 4.05051 -4.41166
rclavicle -1.59028e-015 3.18055e-014
rhumerus -22.3889 2.56855 -85.1181
rradius 37.2628
rwrist -52.5
rhand 6.31775 -40.8371
rfingers 7.12502
rthumb 31.626 -68.1174
lclavicle -1.59028e-015 3.18055e-014
lhumerus -14.1441 -76.7363 103.013
lradius 59.4159
lwrist 7.04881
lhand -26.2594 -22.6275
lfingers 7.12502
lthumb 0.295256 7.352
rfemur -48.8173 -17.1154 5.74988
rtibia 60.265
rfoot -26.7658 -7.79988
rtoes 2.61168
lfemur -53.0343 17.1382 -26.3297
ltibia 47.3577
lfoot -12.1982 6.66771
ltoes -16.1387
117
root -28.3098 15.3665 2.38779 -299.259 70.5149 -315.669
lowerback 24.3623 -1.6026 3.33724
upperback 6.79252 -0.889905 -0.891818
thorax -6.12487 -0.254238 -2.64804
lowerneck -32.9688 7.03039 3.34039
upperneck 21.7411 14.3353 -17.8492
head 14.8955 4.06734 -4.60553
rclavicle -4.29375e-014 -1.43125e-014
rhumerus -22.0218 1.80718 -84.7926
rradius 36.7558
rwrist -53.3538
rhand 7.54338 -40.6945
rfingers 7.12502
rthumb 32.7928 -67.7382
lclavicle -4.29375e-014 -1.43125e-014
lhumerus -13.7196 -77.348 103.387
lradius 59.2395
lwrist 7.16395
lhand -26.5256 -23.7824
lfingers 7.12502
lthumb 0.0380635 6.19732
rfemur -48.6303 -17.5489 4.76731
rtibia 60.7701
rfoot -26.9641 -7.4336
rtoes 2.4151
lfemur -53.4379 16.2042 -26.3143
ltibia 46.0051
lfoot -12.0173 6.93243
ltoes -15.4419
118
root -28.247 15.3301 2.31723 -298.733 69.7564 -314.432
lowerback 25.7667 -1.54983 2.38495
upperback 7.10279 -0.979468 -1.08133
thorax -6.48073 -0.27037 -2.28081
lowerneck -32.9609 7.24048 3.48354
upperneck 21.0157 14.5917 -18.3547
head 14.6935 4.17362 -4.74202
rclavicle -4.29375e-014 4.92986e-014
rhumerus -21.5328 1.65456 -84.5413
rradius 36.1667
rwrist -54.1931
rhand 8.88983 -40.4381
rfingers 7.12502
rthumb 34.0726 -67.2057
lclavicle -4.29375e-014 4.92986e-014
lhumerus -13.3769 -77.531 103.932
lradius 59.1586
lwrist 7.16513
lhand -26.2885 -24.1521
lfingers 7.12502
lthumb 0.267066 5.82745
rfemur -47.9639 -18.0529 3.39359
rtibia 61.105
rfoot -26.845 -7.65484
rtoes -0.335494
lfemur -53.2744 15.2171 -26.534
ltibia 44.9489
lfoot -12.0291 7.51489
ltoes -14.768
119
root -28.1886 15.2788 2.2427 -299.347 69.4918 -314.838
lowerback 26.8036 -1.40675 1.98401
upperback 7.32845 -0.842507 -1.09478
thorax -6.72958 -0.187433 -2.10739
lowerneck -32.744 7.50382 3.87751
upperneck 20.2454 14.8277 -18.9839
head 14.4704 4.29405 -4.97446
rclavicle -3.02153e-014 1.59028e-014
rhumerus -20.9734 1.32753 -84.3233
rradius 35.4937
rwrist -54.7876
rhand 10.3307 -40.0674
rfingers 7.12502
rthumb 35.4399 -66.5196
lclavicle -3.02153e-014 1.59028e-014
lhumerus -13.4776 -78.337 104.814
lradius 59.1352
lwrist 7.48007
lhand -27.6956 -25.0238
lfingers 7.12502
lthumb -1.09187 4.95312
rfemur -47.9414 -18.2969 3.06167
rtibia 61.46
rfoot -26.5198 -8.64012
rtoes -5.20392
lfemur -53.8233 14.5451 -26.1356
ltibia 44.3163
lfoot -11.9705 8.03285
ltoes -14.0438
120
root -28.1365 15.2174 2.16271 -301.45 70.5104 -317.762
lowerback 27.139 -1.79666 2.97108
upperback 7.37472 -1.02769 -0.682263
thorax -6.8597 -0.281901 -2.16022
lowerneck -32.6659 8.21838 4.06223
upperneck 19.3344 15.7741 -19.6058
head 14.3108 4.70596 -4.9815
rclavicle 3.18055e-014 -1.27222e-014
rhumerus -20.1462 2.3149 -84.3306
rradius 34.8185
rwrist -55.3673
rhand 12.1626 -39.5979
rfingers 7.12502
rthumb 37.1745 -65.6171
lclavicle 3.18055e-014 -1.27222e-014
lhumerus -11.3987 -77.9218 103.249
lradius 59.152
lwrist 6.76094
lhand -28.7416 -25.3777
lfingers 7.12502
lthumb -2.10217 4.59169
rfemur -48.8624 -17.9203 4.498
rtibia 61.8466
rfoot -26.4938 -9.51909
rtoes -7.65365
lfemur -55.5209 13.9574 -24.244
ltibia 43.8914
lfoot -11.831 8.46527
ltoes -12.9002
121
root -28.0705 15.1541 2.07137 -303.232 71.0614 -320.14
lowerback 27.6087 -1.82392 3.84308
upperback 7.46182 -0.805548 -0.722538
thorax -6.98752 -0.17872 -2.77919
lowerneck -32.6293 8.40625 4.52975
upperneck 18.9272 15.7905 -19.8307
head 14.2029 4.75062 -5.12954
rclavicle 9.54166e-015 3.18055e-014
rhumerus -19.705 1.67046 -84.454
rradius 34.3018
rwrist -55.6316
rhand 14.7944 -38.7739
rfingers 7.12502
rthumb 39.6581 -64.1022
lclavicle 9.54166e-015 3.18055e-014
lhumerus -9.72852 -78.6674 102.051
lradius 59.1691
lwrist 5.88005
lhand -27.9689 -27.089
lfingers 7.12502
lthumb -1.35589 2.88647
rfemur -49.5323 -17.483 5.12322
rtibia 62.3829
rfoot -26.7758 -9.80485
rtoes -8.37233
lfemur -56.8293 13.5019 -22.9233
ltibia 43.6816
lfoot -11.9319 8.71491
ltoes -11.7281
122
root -27.9941 15.0922 1.97013 -304.194 70.7861 -321.249
lowerback 28.3478 -1.67565 3.49745
upperback 7.6485 -0.664702 -0.791423
thorax -7.12481 -0.0983211 -2.70443
lowerneck -32.6732 8.70202 4.8398
upperneck 18.69 16.0885 -20.0697
head 14.2178 4.88668 -5.1935
rclavicle 2.8625e-014 -5.08889e-014
rhumerus -19.2474 1.27419 -84.2781
rradius 33.8077
rwrist -55.6933
rhand 15.7578 -38.6084
rfingers 7.12502
rthumb 40.5645 -63.6616
lclavicle 2.8625e-014 -5.08889e-014
lhumerus -8.6469 -79.2986 101.797
lradius 58.7705
lwrist 6.34143
lhand -28.5295 -29.3669
lfingers 7.12502
lthumb -1.89731 0.604419
rfemur -49.9435 -17.6272 4.78123
rtibia 63.0279
rfoot -26.8799 -9.62572
rtoes -9.63033
lfemur -57.4775 13.1836 -22.6086
ltibia 43.5595
lfoot -12.067 8.98493
ltoes -11.0815
123
root -27.9077 15.0288 1.86093 -305.702 70.741 -323.069
lowerback 28.9756 -1.57613 3.36448
upperback 7.7923 -0.53419 -0.788874
thorax -7.2554 -0.0280232 -2.67102
lowerneck -32.6642 9.09212 5.18508
upperneck 18.4989 16.4829 -20.2262
head 14.2491 5.07487 -5.20641
rclavicle -2.70347e-014 -1.27222e-014
rhumerus -18.8472 1.11331 -84.166
rradius 33.3822
rwrist -55.6588
rhand 15.5364 -38.3125
rfingers 7.12502
rthumb 40.3563 -63.4301
lclavicle -2.70347e-014 -1.27222e-014
lhumerus -7.37158 -79.5957 101.356
lradius 58.4284
lwrist 5.89058
lhand -28.5872 -29.4658
lfingers 7.12502
lthumb -1.95306 0.505021
rfemur -50.5741 -18.1758 4.95946
rtibia 63.7132
rfoot -26.9536 -9.09452
rtoes -11.3422
lfemur -58.1048 12.9071 -21.9725
ltibia 43.4555
lfoot -11.9904 9.24416
ltoes -10.445
